<?xml version="1.0" encoding="UTF-8" standalone="no"?>
<!DOCTYPE svg PUBLIC "-//W3C//DTD SVG 1.1//EN"
"http://www.w3.org/Graphics/SVG/1.1/DTD/svg11.dtd">


<!-- Page 1 -->
<svg x="0" y="0" width="1130" height="782" viewBox="0 0 1130 782" version="1.1" xmlns="http://www.w3.org/2000/svg" xmlns:xlink="http://www.w3.org/1999/xlink"
style="display: block;margin-left: auto;margin-right: auto;">
<defs>

<style type="text/css"><![CDATA[

.g5_1{
fill: #E2F0D9;
}
.g8_1{
fill: none;
stroke: #41719C;
stroke-width: 2;
stroke-linecap: butt;
stroke-linejoin: miter;
stroke-miterlimit: 8;
}
.g3_1{
fill: none;
stroke: #FFE699;
stroke-width: 7;
stroke-linecap: butt;
stroke-linejoin: miter;
stroke-miterlimit: 8;
stroke-dasharray: 19,7;
}
.g2_1{
fill: #FFF2CC;
}
.g6_1{
fill: none;
stroke: #C5E0B4;
stroke-width: 7;
stroke-linecap: butt;
stroke-linejoin: miter;
stroke-miterlimit: 8;
stroke-dasharray: 19,7;
}
.g4_1{
fill: #5B9BD5;
}
.g7_1{
fill: none;
stroke: #5B9BD5;
stroke-width: 8;
stroke-linecap: butt;
stroke-linejoin: miter;
stroke-miterlimit: 8;
stroke-dasharray: 8,8;
}
.g1_1{
fill: #FFFFFF;
fill-opacity: 0;
}

.s1_1{
font-size: 39.72px;
font-family: Helvetica, Arial, Sans-Serif;
fill: #000000;
}

]]></style>

</defs>
<path d="M0,782l1130,0L1130,0L0,0L0,782Z" class="g1_1" />
<path d="M110,739l1005,0l0,-128L110,611l0,128Z" class="g2_1" />
<path d="M110.5,611.5l1005,0l0,128l-1005,0l0,-128Z" class="g3_1" />
<path d="M171.9,649.3L149,660.8l22.9,11.4l0,-7.6l525.3,0l0,-7.7l-525.3,0Z" class="g4_1" />
<text
x="215"
y="699"
dx="0,0,-0.5,-0.3,0.3,1.2,0.5"
class="s1_1"
>JSON {}</text>

<path d="M108,475l1007,0l0,-129L108,346l0,129Z" class="g2_1" />
<path d="M108.5,346.5l1007,0l0,129l-1007,0l0,-129Z" class="g3_1" />
<path d="M676,600l439,0l0,-115l-439,0l0,115Z" class="g5_1" />
<path d="M676.5,485.5l439,0l0,115l-439,0l0,-115Z" class="g6_1" />
<path d="M394,336l721,0l0,-214l-721,0l0,214Z" class="g5_1" />
<path d="M394.5,122.5l721,0l0,214l-721,0l0,-214Z" class="g6_1" />
<text
x="336"
y="70"
dx="0,0.3,0.3,-0.7,-0.7,-0.7,1.2,0.5,-0.5,-0.7"
class="s1_1"
>Cloud (S3)</text>

<text
x="635"
y="50"
dx="0,-0.5,0.5,-0.7,0.3,0,-0.7"
class="s1_1"
>Browser</text>

<text
x="581"
y="98"
dx="0,0.5,0.3,0.3,-0.7,0.3,-0.7,0.5,-0.7,-0.5,0,0.5,0.3,-0.7,-0.4"
class="s1_1"
>(ClojureScript)</text>

<path d="M419.4,86.3l0,690.4" class="g7_1" />
<path d="M708.1,107.7l0,669.7" class="g7_1" />
<path d="M431.6,239.9l206.2,0l0,-34.4l68.8,68.7L637.8,343l0,-34.4l-206.2,0Z" class="g4_1" />
<path d="M431.6,239.9l206.2,0l0,-34.4l68.8,68.7L637.8,343l0,-34.4l-206.2,0Z" class="g8_1" />
<path d="M446.9,171.1L424,182.6L446.9,194l0,-7.6l246.6,0l0,-7.6l-246.6,0Z" class="g4_1" />
<text
x="461"
y="228"
dx="0,0.3,-0.7,0,-0.5,1.2,0.5"
class="s1_1"
>CLJS ()</text>

<text
x="175"
y="382"
dx="0,-0.3,-0.5,0.2,-0.3,-0.3,0,-0.7,0,0,0.3,-0.7"
class="s1_1"
>GET /session</text>

<text
x="23"
y="70"
dx="0,-0.5,-0.7,0.5,0,-0.7,0.5,1.2,0.5,0.3,-0.7,0.3,0.3,0"
class="s1_1"
>Server (Rails)</text>

<path d="M130.6,86.3l0,690.4" class="g7_1" />
<path d="M170.3,385l-22.9,11.5l22.9,11.4l0,-7.6l525.4,0l0,-7.7l-525.4,0Z" class="g4_1" />
<path d="M657.5,430.8l0,13.8l-507,0l0,13.7l507,0l0,13.8l41.2,-20.6Z" class="g4_1" />
<text
x="450"
y="166"
dx="0,-0.3,-0.5,0.2,-0.3,-0.3,0.4,-0.7,-0.7,-0.7"
class="s1_1"
>GET /index</text>

<text
x="213"
y="434"
dx="0,0,-0.5,-0.3,0.3,1.2,0.5"
class="s1_1"
>JSON {}</text>

<text
x="726"
y="219"
dx="0,-0.7,-0.3,0.7,1.2,-0.7,-3.6,0.2,-0.5,0.3,0.3,-5.1"
class="s1_1"
>LOW LATENCY,</text>

<text
x="726"
y="266"
dx="0,0.3,-0.4,-0.4,0.3,-1.9,-3.6,-3.6,-0.5,-0.4,-0.7,-0.5,-0.5,-0.4,-0.7,-0.4,0.2"
class="s1_1"
>HIGH AVAILABILITY</text>

<text
x="727"
y="533"
dx="0,0.3,-0.7,-0.4,-0.5,0.3,-1.4,0.5,-0.5,-0.4,0.3"
class="s1_1"
>CLIENT-SIDE</text>

<text
x="727"
y="580"
dx="0,0.2,-0.3,0.3,0.5,-0.3,-3.6,-0.5,-0.7,-0.3,0.3,-3.6,0.2,-0.3,-0.3"
class="s1_1"
>FORM VALIDATION</text>

<text
x="726"
y="402"
dx="0,0.3,-0.5,0.2,0.3,-0.5,-1.9,-0.4"
class="s1_1"
>RETRY ON</text>

<text
x="726"
y="450"
dx="0,0.3,-0.5,0.2,0.7,-0.4,0.3,-0.5,-0.4,-1.4,-0.5,-0.4,-0.7,0.3,0.3"
class="s1_1"
>NETWORK FAILURE</text>

<text
x="161"
y="646"
dx="0,-0.5,-0.4,-0.5,0.2,1.2,-0.4,0.5,-0.7,-0.7,0.3,0.3"
class="s1_1"
>POST /mobile</text>

<path d="M659,696.7l0,13.7l-507,0l0,13.8l507,0l0,13.7l41.2,-20.6Z" class="g4_1" />
<text
x="726"
y="663"
dx="0,0.3,-0.5,0.2,0.3,-0.5,-1.9,-0.4"
class="s1_1"
>RETRY ON</text>

<text
x="726"
y="711"
dx="0,0.3,-0.5,0.2,0.7,-0.4,0.3,-0.5,-0.4,-1.4,-0.5,-0.4,-0.7,0.3,0.3"
class="s1_1"
>NETWORK FAILURE</text>
</svg>
