<?xml version="1.0" encoding="UTF-8" standalone="no"?>
<!DOCTYPE svg PUBLIC "-//W3C//DTD SVG 1.1//EN"
"http://www.w3.org/Graphics/SVG/1.1/DTD/svg11.dtd">


<!-- Page 1 -->
<svg x="0" y="0" width="976" height="621" viewBox="0 0 976 621" version="1.1" xmlns="http://www.w3.org/2000/svg" xmlns:xlink="http://www.w3.org/1999/xlink"
style="display: block;margin-left: auto;margin-right: auto;">
<defs>

<style type="text/css"><![CDATA[

.g6_1{
fill: none;
stroke: #41719C;
stroke-width: 2;
stroke-linecap: butt;
stroke-linejoin: miter;
stroke-miterlimit: 8;
}
.g3_1{
fill: none;
stroke: #F8CBAD;
stroke-width: 7;
stroke-linecap: butt;
stroke-linejoin: miter;
stroke-miterlimit: 8;
stroke-dasharray: 19,7;
}
.g2_1{
fill: #FBE5D6;
}
.g5_1{
fill: #5B9BD5;
}
.g1_1{
fill: #FFFFFF;
fill-opacity: 0;
}
.g4_1{
fill: none;
stroke: #5B9BD5;
stroke-width: 8;
stroke-linecap: butt;
stroke-linejoin: miter;
stroke-miterlimit: 8;
stroke-dasharray: 8,8;
}

.s1_1{
font-size: 39.72px;
font-family: Helvetica, Arial, Sans-Serif;
fill: #000000;
}

]]></style>

</defs>
<path d="M0,621l976,0L976,0L0,0L0,621Z" class="g1_1" />
<path d="M100,579l873,0l0,-228l-873,0l0,228Z" class="g2_1" />
<path d="M100.5,351.5l873,0l0,228l-873,0l0,-228Z" class="g3_1" />
<text
x="527"
y="407"
dx="0,-0.5,-0.5,0.3,-0.5,-0.5,0.4,0.5,-0.5,-0.4,0.3"
class="s1_1"
>SERVER-SIDE</text>

<text
x="527"
y="454"
dx="0,0.2,-0.3,0.3,0.5,-0.3,-3.6,-0.5,-0.7,-0.3,0.3,-3.6,0.2,-0.3,-0.3,0.3"
class="s1_1"
>FORM VALIDATION,</text>

<text
x="527"
y="503"
dx="0,0.3,-0.4,0.2,-0.4,0.3,-0.5,-0.5,-0.4,-0.7,-0.4,-0.5,0.3,0.2,-0.4,0.2"
class="s1_1"
>NOT RESILIENT TO</text>

<text
x="527"
y="551"
dx="0,0.3,-0.5,0.2,0.7,-0.4,0.3,-0.5,-0.4,-1.4,-0.5,-0.4,-0.7,0.3,0.3,-0.5"
class="s1_1"
>NETWORK FAILURES</text>

<path d="M100,330l873,0L973,97L100,97l0,233Z" class="g2_1" />
<path d="M100.5,97.5l873,0l0,233l-873,0l0,-233Z" class="g3_1" />
<text
x="25"
y="50"
dx="0,-0.5,-0.7,0.5,0,-0.7,0.5,1.2,0.5,0.3,-0.7,0.3,0.3,0"
class="s1_1"
>Server (Rails)</text>

<text
x="371"
y="50"
dx="0,-0.5,0.5,-0.7,0.3,0,-0.7,0.5,1.2,0.5,0.3,0.2,0.5,-0.7"
class="s1_1"
>Browser (HTML)</text>

<path d="M132.2,68l0,548.5" class="g4_1" />
<path d="M503.4,68l0,548.5" class="g4_1" />
<path d="M142.8,215.4l281.2,0L424,181l68.7,68.8L424,318.5l0,-34.3l-281.2,0Z" class="g5_1" />
<path d="M142.8,215.4l281.2,0L424,181l68.7,68.8L424,318.5l0,-34.3l-281.2,0Z" class="g6_1" />
<path d="M161.2,146.7l-22.9,11.4l22.9,11.5l0,-7.7l327,0l0,-7.6l-327,0Z" class="g5_1" />
<text
x="245"
y="208"
dx="0,0.3,0.2,0.5,-2.2,-0.4,-0.3"
class="s1_1"
>HTML &lt;&gt;</text>

<text
x="222"
y="145"
dx="0,-0.3,-0.5,0.2,-0.3,-0.3,0.4,-0.7,-0.7,-0.7"
class="s1_1"
>GET /index</text>

<path d="M142.8,462.9l281.2,0l0,-34.4l68.7,68.8L424,566l0,-34.3l-281.2,0Z" class="g5_1" />
<path d="M142.8,462.9l281.2,0l0,-34.4l68.7,68.8L424,566l0,-34.3l-281.2,0Z" class="g6_1" />
<path d="M156.6,395.7l-22.9,11.5l22.9,11.4l0,-7.6l327.1,0l0,-7.7l-327.1,0Z" class="g5_1" />
<text
x="242"
y="456"
dx="0,0.3,0.2,0.5,-2.2,-0.4,-0.3"
class="s1_1"
>HTML &lt;&gt;</text>

<text
x="206"
y="394"
dx="0,-0.5,-0.4,-0.5,0.2,1.2,-0.4,0.5,-0.7,-0.7,0.3,0.3"
class="s1_1"
>POST /mobile</text>

<text
x="525"
y="197"
dx="0,0.3,-0.4,-0.4,0.3,-0.4,-0.7,-3.6,0.2,-0.5,0.3,0.3,-5.1"
class="s1_1"
>HIGH LATENCY,</text>

<text
x="525"
y="245"
dx="0,-0.7,-0.3,0.7,-1.9,-3.6,-3.6,-0.5,-0.3,-0.7,-0.5,-0.5,-0.3,-0.7,-0.3,0.2"
class="s1_1"
>LOW AVAILABILITY</text>

</svg>
