<?xml version="1.0" encoding="UTF-8" standalone="no"?>
<!DOCTYPE svg PUBLIC "-//W3C//DTD SVG 1.1//EN"
"http://www.w3.org/Graphics/SVG/1.1/DTD/svg11.dtd">


<!-- Page 1 -->
<svg x="0" y="0" width="1200" height="600" viewBox="0 0 1422 757" version="1.1" xmlns="http://www.w3.org/2000/svg" xmlns:xlink="http://www.w3.org/1999/xlink"
style="display: block;margin-left: auto;margin-right: auto;">
<defs>

<style type="text/css"><![CDATA[

.g5_1{
fill: #E2F0D9;
}
.g4_1{
fill: none;
stroke: #D0CECE;
stroke-width: 2;
stroke-linecap: butt;
stroke-linejoin: miter;
stroke-miterlimit: 8;
}
.g13_1{
fill: none;
stroke: #41719C;
stroke-width: 1;
stroke-linecap: butt;
stroke-linejoin: miter;
stroke-miterlimit: 8;
}
.g9_1{
fill: #5B9BD5;
}
.g2_1{
fill: #E7E6E6;
}
.g7_1{
fill: #FBE5D6;
}
.g1_1{
fill: #FFFFFF;
fill-opacity: 0;
}
.g12_1{
fill: #497DAB;
}
.g11_1{
fill: #9DC3E6;
}
.g3_1{
fill: #BAB9B9;
}
.g6_1{
fill: none;
stroke: #C5E0B4;
stroke-width: 2;
stroke-linecap: butt;
stroke-linejoin: miter;
stroke-miterlimit: 8;
}
.g8_1{
fill: none;
stroke: #F8CBAD;
stroke-width: 2;
stroke-linecap: butt;
stroke-linejoin: miter;
stroke-miterlimit: 8;
}
.g10_1{
fill: none;
stroke: #41719C;
stroke-width: 2;
stroke-linecap: butt;
stroke-linejoin: miter;
stroke-miterlimit: 8;
}

.s2_1{
font-size: 48.89px;
font-family: Helvetica, Arial, Sans-Serif;
fill: #000000;
}
.s1_1{
font-size: 39.72px;
font-family: Helvetica, Arial, Sans-Serif;
fill: #000000;
}

]]></style>

</defs>
<path d="M0,757l1422,0L1422,0L0,0L0,757Z" class="g1_1" />
<path d="M1045.8,0.8l372.7,0l0,694.1L1356.4,757l-310.6,0Z" class="g2_1" />
<path d="M1356.4,757l12.4,-49.7l49.7,-12.4Z" class="g3_1" />
<path d="M1356.4,757l12.4,-49.7l49.7,-12.4L1356.4,757l-310.6,0l0,-756.2l372.7,0l0,694.1" class="g4_1" />
<path d="M1056,666l342,0l0,-227l-342,0l0,227Z" class="g5_1" />
<path d="M1056,439l342,0l0,227l-342,0l0,-227Z" class="g6_1" />
<path d="M2.3,0.8l812.8,0l0,693L751.8,757L2.3,757Z" class="g2_1" />
<path d="M751.8,757l12.7,-50.6l50.6,-12.6Z" class="g3_1" />
<path d="M751.8,757l12.7,-50.6l50.6,-12.6L751.8,757L2.3,757L2.3,0.8l812.8,0l0,693" class="g4_1" />
<path d="M350,669l440,0l0,-227l-440,0l0,227Z" class="g7_1" />
<path d="M350,442l440,0l0,227l-440,0l0,-227Z" class="g8_1" />
<path d="M38,342l755,0l0,-226L38,116l0,226Z" class="g7_1" />
<path d="M38,116l755,0l0,226L38,342L38,116Z" class="g8_1" />
<path d="M1181.7,214.7c0,-28.7,23.3,-52,52,-52c28.7,0,51.9,23.3,51.9,52c0,28.6,-23.2,51.9,-51.9,51.9c-28.7,0,-52,-23.3,-52,-51.9Zm80.6,15.3c8.5,-15.7,2.6,-35.4,-13.2,-43.9c-9.6,-5.2,-21.2,-5.2,-30.8,0Zm-57.2,-30.7c-8.5,15.7,-2.6,35.4,13.2,43.9c9.6,5.2,21.2,5.2,30.8,0Z" class="g9_1" />
<path d="M1181.7,214.7c0,-28.7,23.3,-52,52,-52c28.7,0,51.9,23.3,51.9,52c0,28.6,-23.2,51.9,-51.9,51.9c-28.7,0,-52,-23.3,-52,-51.9Zm80.6,15.3c8.5,-15.7,2.6,-35.4,-13.2,-43.9c-9.6,-5.2,-21.2,-5.2,-30.8,0Zm-57.2,-30.7c-8.5,15.7,-2.6,35.4,13.2,43.9c9.6,5.2,21.2,5.2,30.8,0Z" class="g10_1" />
<path d="M297.2,193.8c0,4.6,14.7,8.2,32.8,8.2c18.1,0,32.8,-3.6,32.8,-8.2l0,70.7c0,4.5,-14.7,8.2,-32.8,8.2c-18.1,0,-32.8,-3.7,-32.8,-8.2Z" class="g9_1" />
<path d="M297.2,193.8c0,-4.5,14.7,-8.2,32.8,-8.2c18.1,0,32.8,3.7,32.8,8.2c0,4.6,-14.7,8.2,-32.8,8.2c-18.1,0,-32.8,-3.6,-32.8,-8.2Z" class="g11_1" />
<path d="M362.8,193.8c0,4.6,-14.7,8.2,-32.8,8.2c-18.1,0,-32.8,-3.6,-32.8,-8.2c0,-4.5,14.7,-8.2,32.8,-8.2c18.1,0,32.8,3.7,32.8,8.2Zm0,0l0,70.7c0,4.5,-14.7,8.2,-32.8,8.2c-18.1,0,-32.8,-3.7,-32.8,-8.2l0,-70.7" class="g10_1" />
<path d="M315.5,204.5c0,4.6,14.7,8.2,32.8,8.2c18.2,0,32.9,-3.6,32.9,-8.2l0,70.7c0,4.5,-14.7,8.2,-32.9,8.2c-18.1,0,-32.8,-3.7,-32.8,-8.2Z" class="g9_1" />
<path d="M315.5,204.5c0,-4.5,14.7,-8.2,32.8,-8.2c18.2,0,32.9,3.7,32.9,8.2c0,4.6,-14.7,8.2,-32.9,8.2c-18.1,0,-32.8,-3.6,-32.8,-8.2Z" class="g11_1" />
<path d="M381.2,204.5c0,4.6,-14.7,8.2,-32.9,8.2c-18.1,0,-32.8,-3.6,-32.8,-8.2c0,-4.5,14.7,-8.2,32.8,-8.2c18.2,0,32.9,3.7,32.9,8.2Zm0,0l0,70.7c0,4.5,-14.7,8.2,-32.9,8.2c-18.1,0,-32.8,-3.7,-32.8,-8.2l0,-70.7" class="g10_1" />
<path d="M333.8,215.2c0,4.6,14.7,8.2,32.9,8.2c18.1,0,32.8,-3.6,32.8,-8.2l0,72.2c0,4.5,-14.7,8.2,-32.8,8.2c-18.2,0,-32.9,-3.7,-32.9,-8.2Z" class="g9_1" />
<path d="M333.8,215.2c0,-4.5,14.7,-8.2,32.9,-8.2c18.1,0,32.8,3.7,32.8,8.2c0,4.6,-14.7,8.2,-32.8,8.2c-18.2,0,-32.9,-3.6,-32.9,-8.2Z" class="g11_1" />
<path d="M399.5,215.2c0,4.6,-14.7,8.2,-32.8,8.2c-18.2,0,-32.9,-3.6,-32.9,-8.2c0,-4.5,14.7,-8.2,32.9,-8.2c18.1,0,32.8,3.7,32.8,8.2Zm0,0l0,72.2c0,4.5,-14.7,8.2,-32.8,8.2c-18.2,0,-32.9,-3.7,-32.9,-8.2l0,-72.2" class="g10_1" />
<path d="M687.9,291c3.1,0,5.7,-2.5,5.7,-5.7l-5.7,0c1.6,0,2.8,-1.3,2.8,-2.9c0,-1.5,-1.2,-2.8,-2.8,-2.8l5.7,0l0,-83.7c0,-3.1,2.6,-5.7,5.7,-5.7l68.8,0c3.2,0,5.7,2.6,5.7,5.7c0,3.2,-2.5,5.8,-5.7,5.8l-5.7,0l0,83.6c0,3.2,-2.6,5.7,-5.8,5.7Zm17.2,-95.1c0,3.2,-2.6,5.8,-5.8,5.8c-1.5,0,-2.8,-1.3,-2.8,-2.9c0,-1.6,1.3,-2.9,2.8,-2.9Z" class="g9_1" />
<path d="M705.1,195.9c0,3.2,-2.6,5.8,-5.8,5.8c-1.5,0,-2.8,-1.3,-2.8,-2.9c0,-1.6,1.3,-2.9,2.8,-2.9Zm-11.5,89.4c0,3.2,-2.6,5.7,-5.7,5.7c-3.2,0,-5.7,-2.5,-5.7,-5.7c0,-3.2,2.5,-5.7,5.7,-5.7c1.6,0,2.8,1.3,2.8,2.8c0,1.6,-1.2,2.9,-2.8,2.9Z" class="g12_1" />
<path d="M693.6,279.6l0,-83.7c0,-3.1,2.6,-5.7,5.7,-5.7l68.8,0c3.2,0,5.7,2.6,5.7,5.7c0,3.2,-2.5,5.8,-5.7,5.8l-5.7,0l0,83.6c0,3.2,-2.6,5.7,-5.8,5.7l-68.7,0c-3.2,0,-5.7,-2.5,-5.7,-5.7c0,-3.2,2.5,-5.7,5.7,-5.7Zm5.7,-89.4c3.2,0,5.8,2.6,5.8,5.7c0,3.2,-2.6,5.8,-5.8,5.8c-1.5,0,-2.8,-1.3,-2.8,-2.9c0,-1.6,1.3,-2.9,2.8,-2.9l5.8,0m57.3,5.8l-63.1,0m-11.4,77.9c1.6,0,2.8,1.3,2.8,2.8c0,1.6,-1.2,2.9,-2.8,2.9l5.7,0m-5.7,5.7c3.1,0,5.7,-2.5,5.7,-5.7l0,-5.7" class="g10_1" />
<path d="M517.2,174.9l22.9,22.9l-11.5,0l0,31.4l34.4,0l0,-11.5l22.9,22.9L563,263.5l0,-11.4l-34.4,0l0,31.3l11.5,0l-22.9,22.9l-23,-22.9l11.5,0l0,-85.6l-11.5,0Z" class="g9_1" />
<path d="M517.2,174.9l22.9,22.9l-11.5,0l0,31.4l34.4,0l0,-11.5l22.9,22.9L563,263.5l0,-11.4l-34.4,0l0,31.3l11.5,0l-22.9,22.9l-23,-22.9l11.5,0l0,-85.6l-11.5,0Z" class="g10_1" />
<path d="M68.8,219.2c-1.3,-12.8,5.3,-24.6,14.7,-26.4c3.8,-0.7,7.7,0.4,11,3c3.5,-9,11.7,-12.4,18.3,-7.6c1.2,0.8,2.3,1.9,3.2,3.1c2.7,-7.5,9.4,-10.5,14.9,-6.8c1.5,1.1,2.9,2.5,3.9,4.4c4.4,-7.1,12.2,-8,17.4,-2c2.2,2.6,3.7,6,4.2,9.9c7.2,2.7,11.5,12.8,9.5,22.7c-0.1,0.8,-0.4,1.6,-0.6,2.4c5.8,10.3,4.4,25.1,-3.2,33c-2.3,2.4,-5.1,4,-8,4.6c-0.1,11,-6.8,19.9,-14.9,19.8c-2.7,0,-5.4,-1,-7.7,-3c-2.7,12.4,-12.3,19.4,-21.4,15.7c-3.8,-1.6,-7.1,-4.9,-9.3,-9.5c-9.3,7.7,-21.4,3.6,-27,-9.1c-0.1,-0.2,-0.1,-0.4,-0.2,-0.5c-6.1,1,-11.6,-5,-12.3,-13.2c-0.4,-4.4,0.7,-8.8,2.9,-12.1c-5.3,-4.2,-7,-13.5,-4,-20.7c1.8,-4.2,5,-6.9,8.5,-7.4Z" class="g9_1" />
<path d="M68.8,219.2c-1.3,-12.8,5.3,-24.6,14.7,-26.4c3.8,-0.7,7.7,0.4,11,3c3.5,-9,11.7,-12.4,18.3,-7.6c1.2,0.8,2.3,1.9,3.2,3.1c2.7,-7.5,9.4,-10.5,14.9,-6.8c1.5,1.1,2.9,2.5,3.9,4.4c4.4,-7.1,12.2,-8,17.4,-2c2.2,2.6,3.7,6,4.2,9.9c7.2,2.7,11.5,12.8,9.5,22.7c-0.1,0.8,-0.4,1.6,-0.6,2.4c5.8,10.3,4.4,25.1,-3.2,33c-2.3,2.4,-5.1,4,-8,4.6c-0.1,11,-6.8,19.9,-14.9,19.8c-2.7,0,-5.4,-1,-7.7,-3c-2.7,12.4,-12.3,19.4,-21.4,15.7c-3.8,-1.6,-7.1,-4.9,-9.3,-9.5c-9.3,7.7,-21.4,3.6,-27,-9.1c-0.1,-0.2,-0.1,-0.4,-0.2,-0.5c-6.1,1,-11.6,-5,-12.3,-13.2c-0.4,-4.4,0.7,-8.8,2.9,-12.1c-5.3,-4.2,-7,-13.5,-4,-20.7c1.8,-4.2,5,-6.9,8.5,-7.4Z" class="g10_1" />
<path d="M70.8,249.2c-2.3,0.3,-4.5,-0.4,-6.5,-2m12.2,24.2c-0.9,0.5,-1.9,0.8,-2.9,1m27.2,9.7c-0.7,-1.4,-1.3,-2.9,-1.7,-4.4m33.1,-6.6c-0.1,1.6,-0.3,3.2,-0.7,4.8M145.7,241c5.1,3.4,8.3,10.5,8.3,18.2m11.2,-37.5c-0.8,2.6,-2,4.9,-3.6,6.8m-5.2,-32.1c0.1,1,0.2,2.1,0.2,3.2m-23.7,-7c0.4,-1.5,1.1,-2.8,1.8,-4.1m-19.5,6.1c0.2,-1.2,0.5,-2.4,0.9,-3.6m-21.6,4.8c1.2,0.9,2.3,2.1,3.3,3.4M69.3,222.8c-0.2,-1.2,-0.4,-2.4,-0.5,-3.6" class="g10_1" />
<path d="M139.1,194.8c10.4,-7.5,23.9,-7.7,30.1,-0.5c2.5,3,3.6,6.9,2.9,11c9.6,-1.4,16.7,4,15.8,12.1c-0.1,1.4,-0.5,2.9,-1.1,4.3c7.8,-1.4,13.8,2.9,13.3,9.5c-0.2,1.8,-0.8,3.7,-1.9,5.5c8.4,0.3,13,6.6,10.4,14.1c-1.1,3.2,-3.3,6.2,-6.4,8.6c1.3,7.6,-5.4,16.3,-14.9,19.6c-0.8,0.2,-1.6,0.5,-2.4,0.6c-6,10.2,-19.5,16.3,-30.1,13.7c-3.3,-0.8,-6,-2.4,-8,-4.6c-9.6,5.4,-20.6,4.1,-24.6,-3c-1.3,-2.3,-1.7,-5.1,-1.2,-8.1c-12.1,3.8,-22.9,-1,-24.2,-10.7c-0.6,-4.1,0.7,-8.6,3.5,-12.8C89,249.9,86.5,237.4,94.7,226.2c0.1,-0.1,0.2,-0.3,0.3,-0.4c-3.8,-4.8,-1.5,-12.5,5.3,-17.3c3.6,-2.5,8,-3.8,11.9,-3.5c1,-6.6,8.2,-12.8,15.9,-13.7c4.5,-0.6,8.5,0.8,10.6,3.5Z" class="g9_1" />
<path d="M139.1,194.8c10.4,-7.5,23.9,-7.7,30.1,-0.5c2.5,3,3.6,6.9,2.9,11c9.6,-1.4,16.7,4,15.8,12.1c-0.1,1.4,-0.5,2.9,-1.1,4.3c7.8,-1.4,13.8,2.9,13.3,9.5c-0.2,1.8,-0.8,3.7,-1.9,5.5c8.4,0.3,13,6.6,10.4,14.1c-1.1,3.2,-3.3,6.2,-6.4,8.6c1.3,7.6,-5.4,16.3,-14.9,19.6c-0.8,0.2,-1.6,0.5,-2.4,0.6c-6,10.2,-19.5,16.3,-30.1,13.7c-3.3,-0.8,-6,-2.4,-8,-4.6c-9.6,5.4,-20.6,4.1,-24.6,-3c-1.3,-2.3,-1.7,-5.1,-1.2,-8.1c-12.1,3.8,-22.9,-1,-24.2,-10.7c-0.6,-4.1,0.7,-8.6,3.5,-12.8C89,249.9,86.5,237.4,94.7,226.2c0.1,-0.1,0.2,-0.3,0.3,-0.4c-3.8,-4.8,-1.5,-12.5,5.3,-17.3c3.6,-2.5,8,-3.8,11.9,-3.5c1,-6.6,8.2,-12.8,15.9,-13.7c4.5,-0.6,8.5,0.8,10.6,3.5Z" class="g13_1" />
<path d="M114.1,211.5c-1.3,-1.8,-1.8,-4.1,-1.5,-6.6M97.7,227.5c-0.8,-0.5,-1.6,-1.2,-2.2,-1.9m5.1,28.3c0.9,-1.3,1.9,-2.5,3,-3.7m22.3,25.4c-1.5,0.7,-3,1.3,-4.5,1.8m37.2,-5.2c-0.4,6.1,-4.9,12.5,-11.6,16.3m38.1,-9c-2.7,0.6,-5.3,0.6,-7.7,0.2m25.2,-20.5c-0.9,0.6,-1.8,1.2,-2.7,1.8M194,237c1.6,-0.4,3.1,-0.5,4.5,-0.5m-15,-13.8c1.2,-0.5,2.4,-0.8,3.5,-1M172.1,205.3c-0.2,1.5,-0.6,3.1,-1.3,4.6M136.3,197.1c0.8,-0.9,1.8,-1.6,2.8,-2.3" class="g13_1" />
<path d="M225,232l16,0l0,-17l16,0l0,17l17,0l0,16l-17,0l0,17l-16,0l0,-17l-16,0Z" class="g9_1" />
<path d="M225,232l16,0l0,-17l16,0l0,17l17,0l0,16l-17,0l0,17l-16,0l0,-17l-16,0Z" class="g10_1" />
<path d="M422,232l16,0l0,-17l16,0l0,17l17,0l0,16l-17,0l0,17l-16,0l0,-17l-16,0Z" class="g9_1" />
<path d="M422,232l16,0l0,-17l16,0l0,17l17,0l0,16l-17,0l0,17l-16,0l0,-17l-16,0Z" class="g10_1" />
<path d="M610,232l16,0l0,-17l16,0l0,17l17,0l0,16l-17,0l0,17l-16,0l0,-17l-16,0Z" class="g9_1" />
<path d="M610,232l16,0l0,-17l16,0l0,17l17,0l0,16l-17,0l0,17l-16,0l0,-17l-16,0Z" class="g10_1" />
<path d="M1289.8,618c3.2,0,5.8,-2.6,5.8,-5.7l-5.8,0c1.6,0,2.9,-1.3,2.9,-2.9c0,-1.6,-1.3,-2.9,-2.9,-2.9l5.8,0l0,-83.6c0,-3.2,2.5,-5.7,5.7,-5.7l68.7,0c3.2,0,5.8,2.5,5.8,5.7c0,3.1,-2.6,5.7,-5.8,5.7l-5.7,0l0,83.7c0,3.1,-2.6,5.7,-5.7,5.7ZM1307,522.9c0,3.1,-2.6,5.7,-5.7,5.7c-1.6,0,-2.9,-1.3,-2.9,-2.9c0,-1.5,1.3,-2.8,2.9,-2.8Z" class="g9_1" />
<path d="M1307,522.9c0,3.1,-2.6,5.7,-5.7,5.7c-1.6,0,-2.9,-1.3,-2.9,-2.9c0,-1.5,1.3,-2.8,2.9,-2.8Zm-11.4,89.4c0,3.1,-2.6,5.7,-5.8,5.7c-3.1,0,-5.7,-2.6,-5.7,-5.7c0,-3.2,2.6,-5.8,5.7,-5.8c1.6,0,2.9,1.3,2.9,2.9c0,1.6,-1.3,2.9,-2.9,2.9Z" class="g12_1" />
<path d="M1295.6,606.5l0,-83.6c0,-3.2,2.5,-5.7,5.7,-5.7l68.7,0c3.2,0,5.8,2.5,5.8,5.7c0,3.1,-2.6,5.7,-5.8,5.7l-5.7,0l0,83.7c0,3.1,-2.6,5.7,-5.7,5.7l-68.8,0c-3.1,0,-5.7,-2.6,-5.7,-5.7c0,-3.2,2.6,-5.8,5.7,-5.8Zm5.7,-89.3c3.1,0,5.7,2.5,5.7,5.7c0,3.1,-2.6,5.7,-5.7,5.7c-1.6,0,-2.9,-1.3,-2.9,-2.9c0,-1.5,1.3,-2.8,2.9,-2.8l5.7,0m57.3,5.7l-63,0m-11.5,77.9c1.6,0,2.9,1.3,2.9,2.9c0,1.6,-1.3,2.9,-2.9,2.9l5.8,0m-5.8,5.7c3.2,0,5.8,-2.6,5.8,-5.7l0,-5.8" class="g10_1" />
<path d="M1119.1,501.9l22.9,22.9l-11.4,0l0,31.3l34.3,0l0,-11.4l22.9,22.9l-22.9,22.9l0,-11.5l-34.3,0l0,31.3l11.4,0l-22.9,23l-22.9,-23l11.4,0l0,-85.5l-11.4,0Z" class="g9_1" />
<path d="M1119.1,501.9l22.9,22.9l-11.4,0l0,31.3l34.3,0l0,-11.4l22.9,22.9l-22.9,22.9l0,-11.5l-34.3,0l0,31.3l11.4,0l-22.9,23l-22.9,-23l11.4,0l0,-85.5l-11.4,0Z" class="g10_1" />
<path d="M1210,559l17,0l0,-17l16,0l0,17l16,0l0,16l-16,0l0,17l-16,0l0,-17l-17,0Z" class="g9_1" />
<path d="M1210,559l17,0l0,-17l16,0l0,17l16,0l0,16l-16,0l0,17l-16,0l0,-17l-17,0Z" class="g10_1" />
<path d="M636.3,520.8c0,4.5,14.7,8.2,32.9,8.2c18.1,0,32.8,-3.7,32.8,-8.2l0,70.6c0,4.6,-14.7,8.3,-32.8,8.3c-18.2,0,-32.9,-3.7,-32.9,-8.3Z" class="g9_1" />
<path d="M636.3,520.8c0,-4.6,14.7,-8.2,32.9,-8.2c18.1,0,32.8,3.6,32.8,8.2c0,4.5,-14.7,8.2,-32.8,8.2c-18.2,0,-32.9,-3.7,-32.9,-8.2Z" class="g11_1" />
<path d="M702,520.8c0,4.5,-14.7,8.2,-32.8,8.2c-18.2,0,-32.9,-3.7,-32.9,-8.2c0,-4.6,14.7,-8.2,32.9,-8.2c18.1,0,32.8,3.6,32.8,8.2Zm0,0l0,70.6c0,4.6,-14.7,8.3,-32.8,8.3c-18.2,0,-32.9,-3.7,-32.9,-8.3l0,-70.6" class="g10_1" />
<path d="M654.7,531.5c0,4.5,14.7,8.2,32.8,8.2c18.1,0,32.8,-3.7,32.8,-8.2l0,72.2c0,4.5,-14.7,8.2,-32.8,8.2c-18.1,0,-32.8,-3.7,-32.8,-8.2Z" class="g9_1" />
<path d="M654.7,531.5c0,-4.6,14.7,-8.2,32.8,-8.2c18.1,0,32.8,3.6,32.8,8.2c0,4.5,-14.7,8.2,-32.8,8.2c-18.1,0,-32.8,-3.7,-32.8,-8.2Z" class="g11_1" />
<path d="M720.3,531.5c0,4.5,-14.7,8.2,-32.8,8.2c-18.1,0,-32.8,-3.7,-32.8,-8.2c0,-4.6,14.7,-8.2,32.8,-8.2c18.1,0,32.8,3.6,32.8,8.2Zm0,0l0,72.2c0,4.5,-14.7,8.2,-32.8,8.2c-18.1,0,-32.8,-3.7,-32.8,-8.2l0,-72.2" class="g10_1" />
<path d="M673,542.2c0,4.5,14.7,8.2,32.8,8.2c18.2,0,32.9,-3.7,32.9,-8.2l0,72.2c0,4.5,-14.7,8.2,-32.9,8.2c-18.1,0,-32.8,-3.7,-32.8,-8.2Z" class="g9_1" />
<path d="M673,542.2c0,-4.6,14.7,-8.2,32.8,-8.2c18.2,0,32.9,3.6,32.9,8.2c0,4.5,-14.7,8.2,-32.9,8.2c-18.1,0,-32.8,-3.7,-32.8,-8.2Z" class="g11_1" />
<path d="M738.7,542.2c0,4.5,-14.7,8.2,-32.9,8.2c-18.1,0,-32.8,-3.7,-32.8,-8.2c0,-4.6,14.7,-8.2,32.8,-8.2c18.2,0,32.9,3.6,32.9,8.2Zm0,0l0,72.2c0,4.5,-14.7,8.2,-32.9,8.2c-18.1,0,-32.8,-3.7,-32.8,-8.2l0,-72.2" class="g10_1" />
<path d="M407.9,546.1c-1.3,-12.8,5.3,-24.6,14.7,-26.3c3.9,-0.7,7.7,0.3,11,3c3.6,-9.1,11.8,-12.5,18.4,-7.7c1.2,0.8,2.2,1.9,3.2,3.2c2.7,-7.5,9.4,-10.6,14.9,-6.8c1.5,1,2.8,2.5,3.8,4.3c4.5,-7,12.3,-7.9,17.5,-1.9c2.2,2.5,3.6,6,4.2,9.8c7.2,2.7,11.5,12.9,9.5,22.7c-0.2,0.9,-0.4,1.7,-0.6,2.5c5.8,10.3,4.4,25,-3.2,32.9c-2.4,2.5,-5.1,4,-8.1,4.6c0,11.1,-6.7,20,-14.8,19.9c-2.7,0,-5.4,-1.1,-7.7,-3c-2.8,12.4,-12.4,19.4,-21.4,15.6c-3.8,-1.6,-7.1,-4.9,-9.3,-9.4c-9.4,7.6,-21.4,3.5,-27,-9.2c-0.1,-0.1,-0.2,-0.3,-0.2,-0.5c-6.1,1,-11.6,-4.9,-12.4,-13.2c-0.3,-4.4,0.7,-8.8,3,-12c-5.3,-4.3,-7.1,-13.5,-4,-20.7c1.8,-4.2,4.9,-7,8.4,-7.5Z" class="g9_1" />
<path d="M407.9,546.1c-1.3,-12.8,5.3,-24.6,14.7,-26.3c3.9,-0.7,7.7,0.3,11,3c3.6,-9.1,11.8,-12.5,18.4,-7.7c1.2,0.8,2.2,1.9,3.2,3.2c2.7,-7.5,9.4,-10.6,14.9,-6.8c1.5,1,2.8,2.5,3.8,4.3c4.5,-7,12.3,-7.9,17.5,-1.9c2.2,2.5,3.6,6,4.2,9.8c7.2,2.7,11.5,12.9,9.5,22.7c-0.2,0.9,-0.4,1.7,-0.6,2.5c5.8,10.3,4.4,25,-3.2,32.9c-2.4,2.5,-5.1,4,-8.1,4.6c0,11.1,-6.7,20,-14.8,19.9c-2.7,0,-5.4,-1.1,-7.7,-3c-2.8,12.4,-12.4,19.4,-21.4,15.6c-3.8,-1.6,-7.1,-4.9,-9.3,-9.4c-9.4,7.6,-21.4,3.5,-27,-9.2c-0.1,-0.1,-0.2,-0.3,-0.2,-0.5c-6.1,1,-11.6,-4.9,-12.4,-13.2c-0.3,-4.4,0.7,-8.8,3,-12c-5.3,-4.3,-7.1,-13.5,-4,-20.7c1.8,-4.2,4.9,-7,8.4,-7.5Z" class="g10_1" />
<path d="M409.9,576.2c-2.2,0.2,-4.5,-0.5,-6.4,-2.1m12.1,24.3c-0.9,0.5,-1.8,0.8,-2.8,0.9m27.1,9.7c-0.6,-1.3,-1.2,-2.8,-1.7,-4.4M471.4,598c-0.1,1.6,-0.3,3.3,-0.7,4.9M484.9,568c5.1,3.3,8.3,10.4,8.3,18.1m11.2,-37.5c-0.8,2.6,-2.1,5,-3.7,6.8m-5.1,-32.1c0.1,1.1,0.2,2.2,0.2,3.2M472,519.6c0.5,-1.5,1.1,-2.9,1.9,-4.1m-19.5,6c0.2,-1.2,0.5,-2.4,0.9,-3.5m-21.7,4.7c1.2,1,2.3,2.1,3.3,3.5m-28.4,23.5c-0.3,-1.2,-0.5,-2.4,-0.6,-3.6" class="g10_1" />
<path d="M478.7,521.7c10.4,-7.5,23.9,-7.7,30.1,-0.4c2.5,3,3.5,6.8,2.9,11c9.6,-1.4,16.6,4,15.8,12.1c-0.1,1.4,-0.5,2.9,-1.1,4.3c7.8,-1.4,13.8,2.9,13.3,9.5c-0.2,1.8,-0.8,3.7,-1.9,5.5c8.4,0.3,13,6.6,10.4,14.1c-1.1,3.2,-3.3,6.2,-6.4,8.5c1.3,7.6,-5.4,16.4,-14.9,19.6c-0.8,0.3,-1.6,0.5,-2.4,0.7c-6,10.2,-19.5,16.3,-30.1,13.7c-3.3,-0.8,-6,-2.4,-8,-4.7c-9.6,5.5,-20.6,4.2,-24.6,-2.9c-1.3,-2.3,-1.7,-5.2,-1.2,-8.1c-12.1,3.8,-23,-1,-24.2,-10.8c-0.6,-4,0.7,-8.5,3.5,-12.7c-11.3,-4.2,-13.8,-16.7,-5.6,-27.9c0.1,-0.2,0.2,-0.3,0.3,-0.4c-3.8,-4.8,-1.5,-12.6,5.3,-17.3c3.6,-2.5,8,-3.8,11.9,-3.5c1,-6.7,8.1,-12.8,15.9,-13.8c4.5,-0.5,8.5,0.8,10.6,3.6Z" class="g9_1" />
<path d="M478.7,521.7c10.4,-7.5,23.9,-7.7,30.1,-0.4c2.5,3,3.5,6.8,2.9,11c9.6,-1.4,16.6,4,15.8,12.1c-0.1,1.4,-0.5,2.9,-1.1,4.3c7.8,-1.4,13.8,2.9,13.3,9.5c-0.2,1.8,-0.8,3.7,-1.9,5.5c8.4,0.3,13,6.6,10.4,14.1c-1.1,3.2,-3.3,6.2,-6.4,8.5c1.3,7.6,-5.4,16.4,-14.9,19.6c-0.8,0.3,-1.6,0.5,-2.4,0.7c-6,10.2,-19.5,16.3,-30.1,13.7c-3.3,-0.8,-6,-2.4,-8,-4.7c-9.6,5.5,-20.6,4.2,-24.6,-2.9c-1.3,-2.3,-1.7,-5.2,-1.2,-8.1c-12.1,3.8,-23,-1,-24.2,-10.8c-0.6,-4,0.7,-8.5,3.5,-12.7c-11.3,-4.2,-13.8,-16.7,-5.6,-27.9c0.1,-0.2,0.2,-0.3,0.3,-0.4c-3.8,-4.8,-1.5,-12.6,5.3,-17.3c3.6,-2.5,8,-3.8,11.9,-3.5c1,-6.7,8.1,-12.8,15.9,-13.8c4.5,-0.5,8.5,0.8,10.6,3.6Z" class="g13_1" />
<path d="M453.7,538.5c-1.3,-1.8,-1.9,-4.1,-1.5,-6.6m-14.9,22.6c-0.9,-0.5,-1.6,-1.2,-2.2,-2m5.1,28.4c0.9,-1.3,1.9,-2.6,3,-3.7m22.3,25.3c-1.5,0.8,-3,1.4,-4.6,1.9m37.3,-5.2c-0.4,6.1,-4.9,12.4,-11.6,16.2m38.1,-9c-2.7,0.6,-5.3,0.7,-7.7,0.3m25.1,-20.5c-0.8,0.6,-1.7,1.2,-2.6,1.7m-5.9,-24c1.6,-0.3,3.1,-0.4,4.5,-0.4m-15,-13.9c1.2,-0.4,2.4,-0.7,3.5,-0.9M511.7,532.3c-0.2,1.5,-0.6,3.1,-1.3,4.6M475.8,524c0.9,-0.8,1.9,-1.6,2.9,-2.3" class="g13_1" />
<path d="M564,559l17,0l0,-17l15,0l0,17l17,0l0,16l-17,0l0,17l-15,0l0,-17l-17,0Z" class="g9_1" />
<path d="M564,559l17,0l0,-17l15,0l0,17l17,0l0,16l-17,0l0,17l-15,0l0,-17l-17,0Z" class="g10_1" />
<path d="M816.6,185.6l178.7,0l0,-25.9l52,51.9l-52,51.9l0,-25.9l-178.7,0Z" class="g9_1" />
<path d="M816.6,185.6l178.7,0l0,-25.9l52,51.9l-52,51.9l0,-25.9l-178.7,0Z" class="g10_1" />
<path d="M1044.2,287.4l-219.7,0l0,9.8l-11,-11.5l11,-11.5l0,9.8l219.7,0Z" class="g9_1" />
<path d="M1044.2,287.4l-219.7,0l0,9.8l-11,-11.5l11,-11.5l0,9.8l219.7,0Z" class="g10_1" />
<path d="M815.1,521.7l209.3,0l0,-10.7l21.4,21.4l-21.4,21.4l0,-10.7l-209.3,0Z" class="g9_1" />
<path d="M815.1,521.7l209.3,0l0,-10.7l21.4,21.4l-21.4,21.4l0,-10.7l-209.3,0Z" class="g10_1" />
<path d="M1044.2,602.3l-208.5,0l0,11.1L813.5,591.2l22.2,-22.1l0,11.1l208.5,0Z" class="g9_1" />
<path d="M1044.2,602.3l-208.5,0l0,11.1L813.5,591.2l22.2,-22.1l0,11.1l208.5,0Z" class="g10_1" />
<text
x="864"
y="504"
dx="0,0,-0.5,-0.3,0.3,1.2,0.5"
class="s1_1"
>JSON {}</text>

<text
x="857"
y="155"
dx="0,0.3,0.2,0.5,-2.2,-0.4,-0.3"
class="s1_1"
>HTML &lt;&gt;</text>

<text
x="815"
y="330"
dx="0,0.2,-0.7,0.5,0.5,-0.3,0.3,-0.7,-0.3,-0.7,1.2,-0.3"
class="s1_1"
>Form Data []</text>

<text
x="864"
y="639"
dx="0,0,-0.5,-0.3,0.3,1.2,0.5"
class="s1_1"
>JSON {}</text>

<text
x="29"
y="64"
dx="0,-0.5,0.3,0.5,0,0.3"
class="s2_1"
>Server</text>

<text
x="1071"
y="67"
dx="0,-0.5,0.5,0.3,-0.2,0,0.3"
class="s2_1"
>Browser</text>

<text
x="53"
y="157"
dx="0,0.3,-0.7,-0.7,0,1.2,-0.7,-0.7,1.2,0.3,-0.7,0.3,0.3"
class="s1_1"
>Ruby on Rails</text>

<text
x="371"
y="482"
dx="0,0.3,-0.7,-0.7,0,1.2,-0.7,-0.7,1.2,0.3,-0.7,0.3,0.3"
class="s1_1"
>Ruby on Rails</text>

<text
x="1071"
y="482"
dx="0,0.3,0.3,-0.7,0.3,-0.7,0.5,-0.7,-0.5,0,0.5,0.3,-0.7"
class="s1_1"
>Single Page App</text>

<!--
<image x="1327" y="412" width="96" height="96" xlink:href="images/clojurescript.svg" />
-->

<image x="713" y="401" width="79" height="94" xlink:href="images/rails.svg" />
<image x="715" y="73" width="80" height="96" xlink:href="images/rails.svg" />

</svg>
